# xmcd CD database file generated by GCD 2.6
# 
# Track frame offsets:
#       150
#       25022
#       40892
#       58572
#       77182
#       96039
#       113004
#       127009
#       145171
#       161206
#       177336
#       197718
#       216775
#       235772
# 
# Disc length: 3395 seconds
# 
# Revision: 3
# Processed by: cddbd v1.4b41PL1 Copyright (c) Steve Scherf et al.
# Submitted via: GCD 2.6
# 
DISCID=be0d410e
DTITLE=FAITH HILL - BREATHE
DYEAR=1900
DGENRE=
TTITLE0=What's In It For Me
TTITLE1=I Got My Baby
TTITLE2=Love Is A Sweet Thing
TTITLE3=Breathe
TTITLE4=Let's Make Love
TTITLE5=It Will Be Me
TTITLE6=The Way That You Love Me
TTITLE7=If I'm Not In Love
TTITLE8=Bringing Out The Elvis
TTITLE9=If My Heart Had Wings
TTITLE10=If I Should Fall Behind
TTITLE11=That's How Love Moves
TTITLE12=There Will Come A Day
TTITLE13=It All Comes Down To Love
EXTD=
EXTT0=
EXTT1=
EXTT2=
EXTT3=
EXTT4=
EXTT5=
EXTT6=
EXTT7=
EXTT8=
EXTT9=
EXTT10=
EXTT11=
EXTT12=
EXTT13=
PLAYORDER=
